<?xml version="1.0"?>
<svg xmlns="http://www.w3.org/2000/svg" viewBox="0 0 64 64" width="512" height="512"><g id="drone-water-plants-technology"><rect x="2" y="60" width="60" height="2"/><path d="M56.9,56A5.01,5.01,0,0,0,53,52.1V49h1a5,5,0,0,0,5-5,1,1,0,0,0-1-1H56a5,5,0,0,0-4.56,2.98A5.99,5.99,0,0,0,47,44H45a1,1,0,0,0-1,1,6,6,0,0,0,6,6h1v1.1A5.01,5.01,0,0,0,47.1,56H36.9A5.01,5.01,0,0,0,33,52.1V47h1a5,5,0,0,0,5-5,1,1,0,0,0-1-1H36a4.962,4.962,0,0,0-3.32,1.29A5,5,0,0,0,28,39H26a1,1,0,0,0-1,1,5,5,0,0,0,5,5h1v1.03A4.924,4.924,0,0,0,28,45H26a1,1,0,0,0-1,1,5,5,0,0,0,5,5h1v1.1A5.01,5.01,0,0,0,27.1,56H17.9A5.01,5.01,0,0,0,14,52.1V51h1a6,6,0,0,0,6-6,1,1,0,0,0-1-1H18a5.99,5.99,0,0,0-4.44,1.98A5,5,0,0,0,9,43H7a1,1,0,0,0-1,1,5,5,0,0,0,5,5h1v3.1A5.01,5.01,0,0,0,8.1,56H2v2H62V56ZM56,45h.83A3.014,3.014,0,0,1,54,47h-.83A3.014,3.014,0,0,1,56,45Zm-6,4a4,4,0,0,1-3.87-3H47a4,4,0,0,1,3.87,3ZM36,43h.83A3.014,3.014,0,0,1,34,45h-.83A3.014,3.014,0,0,1,36,43Zm-6,0a3.014,3.014,0,0,1-2.83-2H28a3.014,3.014,0,0,1,2.83,2Zm0,6a3.014,3.014,0,0,1-2.83-2H28a3.014,3.014,0,0,1,2.83,2ZM18,46h.87A4,4,0,0,1,15,49h-.87A4,4,0,0,1,18,46Zm-7,1a3.014,3.014,0,0,1-2.83-2H9a3.014,3.014,0,0,1,2.83,2Zm-.82,9a2.988,2.988,0,0,1,5.64,0Zm19,0a2.988,2.988,0,0,1,5.64,0Zm20,0a2.988,2.988,0,0,1,5.64,0Z"/><path d="M36,33c0-1.874-2.646-5.8-3.177-6.568a1.038,1.038,0,0,0-1.646,0C30.646,27.2,28,31.126,28,33a4,4,0,0,0,8,0Zm-6,0c0-.662.933-2.474,2-4.179,1.067,1.7,2,3.516,2,4.179a2,2,0,0,1-4,0Z"/><path d="M17,35c0-1.874-2.646-5.8-3.177-6.568a1.038,1.038,0,0,0-1.646,0C11.646,29.2,9,33.126,9,35a4,4,0,0,0,8,0Zm-6,0c0-.662.933-2.474,2-4.179,1.067,1.7,2,3.516,2,4.179a2,2,0,0,1-4,0Z"/><path d="M55,37c0-1.874-2.646-5.8-3.177-6.568a1.038,1.038,0,0,0-1.646,0C49.646,31.2,47,35.126,47,37a4,4,0,0,0,8,0Zm-6,0c0-.662.933-2.474,2-4.179,1.067,1.7,2,3.516,2,4.179a2,2,0,0,1-4,0Z"/><path d="M62,4V2H46V4h7V6H51a1,1,0,0,0-1,1v4H38V9a1,1,0,0,0-1-1H27a1,1,0,0,0-1,1v2H14V7a1,1,0,0,0-1-1H11V4h7V2H2V4H9V6H7A1,1,0,0,0,6,7V17a1,1,0,0,0,1,1h6a1,1,0,0,0,1-1h7.25l1.59,5.57L20.7,24H18v2h3a.967.967,0,0,0,.55-.17L24.3,24H39.7l2.75,1.83A.967.967,0,0,0,43,26h3V24H43.3l-2.14-1.43L42.75,17H50a1,1,0,0,0,1,1h6a1,1,0,0,0,1-1V7a1,1,0,0,0-1-1H55V4ZM12,16H8V8h4Zm16-6h8v1H28ZM39.25,22H24.75l-1.42-5H40.67ZM50,15H14V13H50Zm6-7v8H52V8Z"/></g></svg>
