<svg height="512pt" viewBox="0 0 512 512" width="512pt" xmlns="http://www.w3.org/2000/svg"><path d="m502 84h-48c-5.523438 0-10 4.476562-10 10v122.351562c-8.269531-6.167968-18.515625-9.824218-29.601562-9.824218-16.160157 0-30.539063 7.773437-39.597657 19.773437-9.0625-12-23.4375-19.773437-39.601562-19.773437-16.160157 0-30.539063 7.773437-39.597657 19.773437-9.0625-12-23.441406-19.773437-39.601562-19.773437s-30.539062 7.773437-39.601562 19.773437c-9.058594-12-23.4375-19.773437-39.597657-19.773437-16.160156 0-30.539062 7.773437-39.601562 19.773437-9.058594-12-23.4375-19.773437-39.597657-19.773437-11.085937 0-21.332031 3.65625-29.601562 9.824218v-122.351562c0-5.523438-4.476562-10-10-10h-48c-5.523438 0-10 4.476562-10 10v360c0 31.980469 26.019531 58 58 58h396c31.980469 0 58-26.019531 58-58v-360c0-5.523438-4.476562-10-10-10zm-404.398438 221.726562c.683594 0 1.359376-.023437 2.039063-.050781 15.371094 1.050781 27.558594 13.886719 27.558594 29.519531 0 16.320313-13.277344 29.601563-29.597657 29.601563-16.324218 0-29.601562-13.277344-29.601562-29.601563 0-15.632812 12.1875-28.46875 27.558594-29.519531.679687.027344 1.355468.050781 2.042968.050781zm39.597657-19.773437c2.769531 3.664063 6.03125 6.933594 9.691406 9.707031-3.660156 2.777344-6.921875 6.042969-9.691406 9.710938-2.765625-3.667969-6.03125-6.933594-9.6875-9.710938 3.65625-2.773437 6.921875-6.042968 9.6875-9.707031zm39.601562 19.773437c.683594 0 1.359375-.023437 2.039063-.050781 15.375 1.050781 27.558594 13.886719 27.558594 29.519531 0 16.320313-13.277344 29.601563-29.597657 29.601563-16.320312 0-29.601562-13.277344-29.601562-29.601563 0-15.632812 12.1875-28.46875 27.5625-29.519531.675781.027344 1.355469.050781 2.039062.050781zm39.597657-19.773437c2.769531 3.664063 6.03125 6.933594 9.691406 9.707031-3.660156 2.777344-6.921875 6.042969-9.691406 9.710938-2.765626-3.667969-6.03125-6.933594-9.6875-9.710938 3.65625-2.773437 6.921874-6.042968 9.6875-9.707031zm39.601562 19.773437c.683594 0 1.363281-.023437 2.039062-.050781 15.375 1.050781 27.5625 13.886719 27.5625 29.519531 0 16.320313-13.28125 29.601563-29.601562 29.601563s-29.601562-13.277344-29.601562-29.601563c0-15.632812 12.1875-28.46875 27.5625-29.519531.675781.027344 1.355468.050781 2.039062.050781zm39.601562-19.773437c2.765626 3.664063 6.03125 6.933594 9.6875 9.707031-3.65625 2.777344-6.921874 6.042969-9.6875 9.710938-2.769531-3.667969-6.03125-6.933594-9.691406-9.710938 3.660156-2.773437 6.921875-6.042968 9.691406-9.707031zm39.597657 19.773437c.683593 0 1.363281-.023437 2.039062-.050781 15.375 1.050781 27.5625 13.886719 27.5625 29.519531 0 16.320313-13.277343 29.601563-29.601562 29.601563-16.320313 0-29.597657-13.277344-29.597657-29.601563 0-15.632812 12.183594-28.46875 27.558594-29.519531.679688.027344 1.355469.050781 2.039063.050781zm39.601562-19.773437c2.765625 3.664063 6.03125 6.933594 9.6875 9.707031-3.65625 2.777344-6.921875 6.042969-9.6875 9.710938-2.769531-3.667969-6.03125-6.933594-9.691406-9.710938 3.660156-2.773437 6.921875-6.042968 9.691406-9.707031zm39.597657 19.773437c.6875 0 1.363281-.023437 2.042968-.050781 15.371094 1.050781 27.558594 13.886719 27.558594 29.519531 0 16.320313-13.277344 29.601563-29.601562 29.601563-16.320313 0-29.597657-13.277344-29.597657-29.601563 0-15.632812 12.1875-28.46875 27.558594-29.519531.679687.027344 1.355469.050781 2.039063.050781zm-277.199219 59.296876c2.789062 3.691406 6.082031 6.984374 9.773437 9.773437-3.691406 2.789063-6.984375 6.078125-9.773437 9.773437-2.789063-3.695312-6.078125-6.984374-9.773438-9.773437 3.695313-2.789063 6.984375-6.082031 9.773438-9.773437zm79.199219 0c2.789062 3.691406 6.082031 6.984374 9.773437 9.773437-3.691406 2.789063-6.984375 6.078125-9.773437 9.773437-2.785157-3.695312-6.078126-6.984374-9.769532-9.773437 3.691406-2.789063 6.984375-6.082031 9.769532-9.773437zm79.203124 0c2.785157 3.691406 6.078126 6.984374 9.769532 9.773437-3.691406 2.789063-6.980469 6.078125-9.769532 9.773437-2.789062-3.695312-6.082031-6.984374-9.773437-9.773437 3.691406-2.789063 6.984375-6.082031 9.773437-9.773437zm79.199219 0c2.789063 3.691406 6.078125 6.984374 9.773438 9.773437-3.695313 2.789063-6.984375 6.078125-9.773438 9.773437-2.789062-3.695312-6.082031-6.984374-9.773437-9.773437 3.691406-2.789063 6.984375-6.082031 9.773437-9.773437zm-10 49.371093c0 16.324219-13.277343 29.601563-29.601562 29.601563-16.320313 0-29.597657-13.277344-29.597657-29.601563 0-16.320312 13.277344-29.597656 29.597657-29.597656 16.320312 0 29.601562 13.277344 29.601562 29.597656zm-79.199219 0c0 16.324219-13.28125 29.601563-29.601562 29.601563s-29.601562-13.277344-29.601562-29.601563c0-16.320312 13.28125-29.597656 29.601562-29.597656s29.601562 13.277344 29.601562 29.597656zm-79.203124 0c0 16.324219-13.277344 29.601563-29.597657 29.601563-16.320312 0-29.601562-13.277344-29.601562-29.601563 0-16.320312 13.277343-29.597656 29.601562-29.597656 16.320313 0 29.597657 13.277344 29.597657 29.597656zm-79.199219 0c0 16.324219-13.277344 29.601563-29.597657 29.601563-16.324218 0-29.601562-13.277344-29.601562-29.601563 0-16.320312 13.277344-29.597656 29.601562-29.597656 16.320313 0 29.597657 13.277344 29.597657 29.597656zm287.199219 29.601563c-16.320313 0-29.597657-13.277344-29.597657-29.601563 0-16.320312 13.277344-29.597656 29.597657-29.597656 16.324218 0 29.601562 13.277344 29.601562 29.597656 0 16.324219-13.277344 29.601563-29.601562 29.601563zm0-217.46875c16.324218 0 29.601562 13.277344 29.601562 29.601562 0 15.632813-12.1875 28.46875-27.558594 29.519532-.679687-.027344-1.355468-.050782-2.042968-.050782-.683594 0-1.359376.023438-2.039063.050782-15.371094-1.050782-27.558594-13.886719-27.558594-29.519532 0-16.324218 13.277344-29.601562 29.597657-29.601562zm-79.199219 0c16.320312 0 29.601562 13.277344 29.601562 29.601562 0 15.632813-12.1875 28.46875-27.5625 29.519532-.675781-.027344-1.355469-.050782-2.039062-.050782-.683594 0-1.359375.023438-2.039063.050782-15.375-1.050782-27.558594-13.886719-27.558594-29.519532 0-16.324218 13.277344-29.601562 29.597657-29.601562zm-79.199219 0c16.320312 0 29.601562 13.277344 29.601562 29.601562 0 15.632813-12.1875 28.46875-27.5625 29.519532-.675781-.027344-1.355468-.050782-2.039062-.050782s-1.363281.023438-2.039062.050782c-15.375-1.050782-27.5625-13.886719-27.5625-29.519532 0-16.324218 13.28125-29.601562 29.601562-29.601562zm-79.199219 0c16.320313 0 29.597657 13.277344 29.597657 29.601562 0 15.632813-12.183594 28.46875-27.558594 29.519532-.675782-.027344-1.355469-.050782-2.039063-.050782-.683593 0-1.363281.023438-2.039062.050782-15.375-1.050782-27.5625-13.886719-27.5625-29.519532 0-16.324218 13.28125-29.601562 29.601562-29.601562zm-79.199219 0c16.320313 0 29.597657 13.277344 29.597657 29.601562 0 15.632813-12.1875 28.46875-27.558594 29.519532-.675781-.027344-1.355469-.050782-2.039063-.050782-.6875 0-1.363281.023438-2.042968.050782-15.371094-1.050782-27.558594-13.886719-27.558594-29.519532 0-16.324218 13.277344-29.601562 29.601562-29.601562zm394.398438 227.472656c0 20.953125-17.046875 38-38 38h-396c-20.953125 0-38-17.046875-38-38v-350h28v350c0 5.523438 4.476562 10 10 10h396c5.523438 0 10-4.476562 10-10v-350h28zm0 0"/><path d="m122 186h88.332031c5.523438 0 10-4.476562 10-10s-4.476562-10-10-10h-88.332031c-7.71875 0-14-6.28125-14-14s6.28125-14 14-14h268c7.71875 0 14 6.28125 14 14s-6.28125 14-14 14h-88.5625c-5.523438 0-10 4.476562-10 10s4.476562 10 10 10h88.5625c18.746094 0 34-15.253906 34-34s-15.253906-34-34-34h-91.5625v-75.5625c0-23.402344-19.039062-42.4375-42.4375-42.4375s-42.4375 19.035156-42.4375 42.4375v75.5625h-91.5625c-18.746094 0-34 15.253906-34 34s15.253906 34 34 34zm111.5625-143.5625c0-12.371094 10.066406-22.4375 22.4375-22.4375s22.4375 10.066406 22.4375 22.4375v75.5625h-44.875zm0 0"/><path d="m132.46875 94c5.519531 0 10-4.476562 10-10v-43.976562c0-5.519532-4.480469-10-10-10-5.523438 0-10 4.480468-10 10v43.976562c0 5.523438 4.476562 10 10 10zm0 0"/><path d="m176.800781 63.976562c5.523438 0 10-4.480468 10-10v-43.976562c0-5.523438-4.476562-10-10-10-5.523437 0-10 4.476562-10 10v43.976562c0 5.519532 4.476563 10 10 10zm0 0"/><path d="m379.53125 94c5.523438 0 10-4.476562 10-10v-43.976562c0-5.519532-4.476562-10-10-10-5.519531 0-10 4.480468-10 10v43.976562c0 5.523438 4.480469 10 10 10zm0 0"/><path d="m335.199219 63.976562c5.523437 0 10-4.480468 10-10v-43.976562c0-5.523438-4.476563-10-10-10-5.523438 0-10 4.476562-10 10v43.976562c0 5.519532 4.476562 10 10 10zm0 0"/><path d="m249.058594 168.929688c-1.859375 1.859374-2.929688 4.441406-2.929688 7.070312s1.070313 5.210938 2.929688 7.070312c1.863281 1.859376 4.441406 2.929688 7.070312 2.929688 2.632813 0 5.210938-1.070312 7.070313-2.929688 1.859375-1.859374 2.929687-4.441406 2.929687-7.070312s-1.070312-5.210938-2.929687-7.070312c-1.859375-1.859376-4.4375-2.929688-7.070313-2.929688-2.628906 0-5.207031 1.070312-7.070312 2.929688zm0 0"/></svg>