<?xml version="1.0" encoding="UTF-8"?>
<svg xmlns="http://www.w3.org/2000/svg" xmlns:xlink="http://www.w3.org/1999/xlink" width="512" height="512" viewBox="0 0 60 60" version="1.1"><!-- Generator: Sketch 51.3 (57544) - http://www.bohemiancoding.com/sketch --><title>027 - Cider Press</title><desc>Created with Sketch.</desc><defs/><g id="Page-1" stroke="none" stroke-width="1" fill="none" fill-rule="evenodd"><g id="027---Cider-Press" fill="#000000" fill-rule="nonzero"><path d="M57,5 L34.625,5 C34.1601354,4.49041043 33.6102984,4.06542877 33,3.744 L33,3 C33.0064333,2.20791489 32.6910145,1.44715656 32.126,0.892 C31.5680711,0.318001487 30.8004639,-0.00406134 30,-5.61332122e-16 C28.3431458,-9.89632638e-16 27,1.34314575 27,3 L27,3.744 C26.3897016,4.06542877 25.8398646,4.49041043 25.375,5 L3,5 C2.20830589,4.99406833 1.44804566,5.30943019 0.893,5.874 C0.317752698,6.43115833 -0.00484563887,7.1991808 1.33226763e-15,8 C2.27096309e-15,9.65685425 1.34314575,11 3,11 L24.662,11 C24.9147041,11.4489748 25.2290963,11.8603103 25.596,12.222 C25.2124471,12.7357542 25.0035726,13.3588733 25,14 L25,14.2 C21.116,14.5 15.663,15.334 15.065,17.589 C15.058,17.602 15.048,17.613 15.042,17.627 C14.8,18.227 14.5716667,18.8316667 14.357,19.441 C13.8698728,20.8305229 13.4553134,22.2444311 13.115,23.677 C12.4462956,26.5099313 12.0799134,29.4057919 12.022,32.316 C12.017,32.616 12.028,32.916 12.029,33.222 C12.029,33.24 12.029,33.258 12.029,33.275 C12.029,34.405 12.071,35.539 12.169,36.661 C12.187,36.869 12.219,37.078 12.24,37.286 C12.24,37.317 12.245,37.345 12.25,37.375 C12.377,38.581 12.545,39.79 12.777,40.975 C13.0586486,42.4139294 13.4151325,43.8371948 13.845,45.239 C13.993,45.722 14.145,46.202 14.311,46.678 C14.375,46.858 14.432,47.039 14.487,47.221 C14.528,47.352 14.576,47.482 14.619,47.612 C11.523,48.472 10,49.582 10,51 L10,55 C10,58.947 22.571,60 30,60 C37.429,60 50,58.947 50,55 L50,51 C50,49.572 48.52,48.487 45.393,47.62 C45.437,47.488 45.486,47.357 45.527,47.22 C45.583,47.039 45.64,46.858 45.703,46.678 C45.87,46.202 46.021,45.722 46.169,45.239 C46.5994508,43.8370193 46.9559422,42.4133903 47.237,40.974 C47.469,39.785 47.637,38.58 47.762,37.379 C47.7705041,37.3358061 47.7755203,37.2919982 47.777,37.248 C47.797,37.048 47.828,36.848 47.845,36.656 C47.945,35.536 47.98,34.404 47.985,33.276 C47.9875053,33.2363729 47.9875053,33.1966271 47.985,33.157 C47.985,32.876 47.996,32.593 47.991,32.312 C47.9625026,30.8611607 47.8576911,29.4128255 47.677,27.973 C47.4927689,26.5270208 47.2327443,25.0917118 46.898,23.673 C46.5586224,22.2401831 46.1440487,20.8262264 45.656,19.437 C45.442,18.8276667 45.2136667,18.2226667 44.971,17.622 C44.9581854,17.5979756 44.9441676,17.5746126 44.929,17.552 C44.289,15.324 38.866,14.5 35,14.2 L35,14 C34.9952717,13.3584218 34.7849806,12.7352591 34.4,12.222 C34.7683167,11.8605736 35.0840652,11.4492253 35.338,11 L57,11 C58.6568542,11 60,9.65685425 60,8 C59.9917942,6.34655664 58.6534434,5.00820583 57,5 Z M33,14 L33,16 L27,16 L27,14 C27.0031974,13.7710177 27.0855205,13.5501939 27.233,13.375 C28.9835667,14.2082661 31.0164333,14.2082661 32.767,13.375 C32.9144795,13.5501939 32.9968026,13.7710177 33,14 Z M30,5 C32.0671312,4.87351648 33.8509663,6.43437219 34,8.5 C33.8509663,10.5656278 32.0671312,12.1264835 30,12 C27.9328688,12.1264835 26.1490337,10.5656278 26,8.5 C26.1490337,6.43437219 27.9328688,4.87351648 30,5 Z M29,3 C29,2.44771525 29.4477153,2 30,2 C30.2696918,1.99932881 30.5276905,2.11005477 30.713,2.306 C30.8984514,2.48909032 31.0019672,2.7394037 31,3 L31,3.083 C30.3379254,2.9723408 29.6620746,2.9723408 29,3.083 L29,3 Z M3,9 C2.44771525,9 2,8.55228475 2,8 C1.99960456,7.7306555 2.11030803,7.47307097 2.306,7.288 C2.48839634,7.10140151 2.73907757,6.99737242 3,7 L24.233,7 C24.0802446,7.48541487 24.0016918,7.99111992 24,8.5 C24.0007417,8.66703689 24.0100874,8.83392468 24.028,9 L3,9 Z M14.322,28.228 C14.4957475,26.8518148 14.7427649,25.4858751 15.062,24.136 C15.3851159,22.7709133 15.7796587,21.4237268 16.244,20.1 C16.273,20.018 16.306,19.938 16.335,19.857 C17.0217832,20.244727 17.7545076,20.5447375 18.516,20.75 C18.486,20.902 18.46,21.05 18.421,21.216 L18.395,21.344 C18.302,21.797 18.21,22.244 18.128,22.692 C17.834,24.256 17.611,25.701 17.447,27.111 C17.276,28.57 17.153,30.073 17.082,31.568 C17.054,32.036 17.037,32.52 17.025,33.018 C15.9243333,32.828 14.9243333,32.614 14.025,32.376 C14.025,32.368 14.025,32.359 14.025,32.351 C14.051062,30.9723835 14.1502011,29.5961184 14.322,28.228 Z M23.631,21.668 C23.593,22.041 23.554,22.417 23.524,22.783 C23.4,24.1 23.293,25.5 23.2,27.175 C23.112,28.76 23.057,30.211 23.028,31.61 C23.015,32.318 23.013,33.029 23.008,33.739 C21.608,33.6323333 20.2783333,33.4936667 19.019,33.323 C19.029,32.757 19.046,32.207 19.077,31.678 C19.146,30.217 19.267,28.76 19.432,27.346 C19.591,25.982 19.807,24.582 20.092,23.061 C20.173,22.621 20.262,22.188 20.352,21.75 L20.371,21.65 C20.406,21.505 20.432,21.358 20.461,21.212 C21.492,21.41 22.574,21.557 23.631,21.668 Z M34.375,21.84 C34.414,22.214 34.453,22.588 34.485,22.977 C34.611,24.265 34.711,25.633 34.802,27.285 C34.888,28.847 34.942,30.274 34.97,31.649 C34.984,32.386 34.987,33.127 34.991,33.868 C33.691,33.937 32.355,33.968 31,33.987 L31,21.987 C31.821,21.973 33.018,21.934 34.375,21.84 Z M39.537,21.213 C39.564,21.351 39.59,21.496 39.62,21.621 L39.646,21.75 C39.736,22.188 39.825,22.621 39.907,23.064 C40.191,24.582 40.407,25.982 40.566,27.346 C40.731,28.76 40.852,30.217 40.922,31.688 C40.952,32.211 40.969,32.757 40.979,33.32 C39.721,33.488 38.39,33.63 36.99,33.737 C36.985,33.028 36.983,32.317 36.97,31.61 C36.941,30.21 36.886,28.76 36.798,27.176 C36.707,25.495 36.604,24.099 36.478,22.798 C36.446,22.416 36.407,22.041 36.369,21.668 C37.426,21.557 38.508,21.41 39.537,21.213 Z M45.857,36.406 C40.6510277,37.5504306 35.3295949,38.0853593 30,38 C24.6758353,38.0829154 19.3599191,37.5503842 14.158,36.413 C14.102,35.7623333 14.0623333,35.1083333 14.039,34.451 C17.2945565,35.1830319 20.6065075,35.6366688 23.939,35.807 C23.961,35.807 23.98,35.82 24.002,35.82 C24.0127862,35.8182512 24.0234688,35.8159144 24.034,35.813 C25.944,35.931 27.939,36 30.002,36 C32.065,36 34.055,35.931 35.965,35.812 C35.978,35.812 35.989,35.82 36.002,35.82 C36.015,35.82 36.049,35.807 36.074,35.805 C39.4066991,35.6324246 42.7186573,35.1764449 45.974,34.442 C45.953,35.1 45.913,35.755 45.857,36.406 Z M40.223,44.694 C39.995,46.13 39.717,47.553 39.396,48.921 C39.366,49.05 39.33,49.182 39.296,49.313 C39.131,49.341 38.966,49.37 38.816,49.394 C37.956,49.531 37.041,49.642 36.054,49.734 C36.073,49.581 36.094,49.425 36.11,49.275 C36.275,47.967 36.421,46.543 36.554,44.93 C36.673,43.612 36.769,42.166 36.846,40.515 C36.86,40.261 36.868,40.007 36.878,39.754 C38.258,39.6533333 39.5733333,39.5223333 40.824,39.361 C40.8,39.7 40.784,40.039 40.752,40.382 C40.626,41.827 40.447,43.277 40.223,44.694 Z M25.976,49.876 C25.94,49.597 25.903,49.321 25.876,49.024 C25.714,47.745 25.576,46.35 25.441,44.75 C25.324,43.461 25.231,42.042 25.152,40.405 C25.143,40.23 25.138,40.055 25.13,39.88 C26.387,39.943 27.687,39.975 29.004,39.988 L29.004,49.982 C27.973,49.968 26.962,49.933 25.976,49.876 Z M20.7,49.31 C20.668,49.18 20.633,49.05 20.6,48.922 C20.279,47.553 20,46.13 19.773,44.693 C19.549,43.277 19.373,41.827 19.242,40.378 C19.21,40.037 19.194,39.699 19.17,39.361 C20.422,39.5203333 21.7373333,39.651 23.116,39.753 C23.126,40.005 23.134,40.258 23.147,40.507 C23.225,42.166 23.321,43.612 23.439,44.922 C23.573,46.543 23.719,47.967 23.882,49.255 C23.899,49.416 23.92,49.573 23.94,49.732 C22.958,49.641 22.048,49.532 21.192,49.393 L20.7,49.31 Z M31,39.988 C32.318,39.975 33.617,39.943 34.873,39.88 C34.865,40.058 34.86,40.234 34.851,40.413 C34.773,42.042 34.68,43.461 34.562,44.758 C34.433,46.35 34.29,47.745 34.126,49.044 C34.096,49.325 34.06,49.601 34.026,49.877 C33.043,49.934 32.032,49.968 31.002,49.977 L31,39.988 Z M29,33.988 C27.644,33.974 26.306,33.938 25.009,33.869 C25.009,33.129 25.016,32.388 25.03,31.651 C25.058,30.275 25.112,28.851 25.198,27.285 C25.289,25.634 25.389,24.266 25.517,22.962 C25.547,22.589 25.586,22.215 25.625,21.841 C26.982,21.935 28.179,21.974 29,21.99 L29,33.988 Z M14.4,38.536 C15.25,38.736 16.176,38.908 17.152,39.068 C17.184,39.568 17.212,40.061 17.258,40.558 C17.39,42.049 17.574,43.545 17.807,45.006 C18.007,46.298 18.261,47.573 18.54,48.817 C18.453,48.791 18.366,48.77 18.279,48.742 C17.8840447,48.6482037 17.5124357,48.4746501 17.187,48.232 C16.9423779,47.9807337 16.7562779,47.6785347 16.642,47.347 C16.551,47.112 16.477,46.873 16.402,46.633 C16.339,46.427 16.275,46.221 16.202,46.018 C16.043,45.567 15.902,45.113 15.761,44.656 C15.3521194,43.3211362 15.0126645,41.9659869 14.744,40.596 C14.6093333,39.914 14.4946667,39.2273333 14.4,38.536 Z M30,58 C18.91,58 12.408,56.039 12,54.979 L12,53.428 C12.3945911,53.6228452 12.8006751,53.793494 13.216,53.939 C16.743,55.229 23.018,56 30,56 C36.982,56 43.257,55.229 46.775,53.942 C47.1935126,53.797951 47.6026392,53.6279547 48,53.433 L48,54.974 C47.611,56.033 41.108,58 30,58 Z M48,50.971 C47.98,51.012 47.723,51.481 46.094,52.061 C42.828,53.257 36.66,54 30,54 C23.34,54 17.172,53.257 13.9,52.06 C13.1916734,51.8774164 12.5391574,51.5233406 12,51.029 L12,51.024 C12.045,50.942 12.529,50.201 15.592,49.424 C15.666,49.508 15.728,49.61 15.808,49.686 C16.3452484,50.1445164 16.9805527,50.4736294 17.665,50.648 C18.7176032,50.9691671 19.7930092,51.2101891 20.882,51.369 C22.141,51.569 23.499,51.721 25.029,51.83 C25.05,51.83 25.068,51.841 25.089,51.841 C25.11,51.841 25.127,51.841 25.146,51.841 C26.693,51.944 28.32,52 30,52 L30.016,52 C31.683,52 33.316,51.944 34.862,51.837 L34.912,51.837 C34.929,51.837 34.944,51.829 34.961,51.828 C36.5,51.719 37.866,51.568 39.134,51.366 C40.2229283,51.2063826 41.2982989,50.9650343 42.351,50.644 C43.035522,50.469038 43.671024,50.1399998 44.209,49.682 C44.288,49.607 44.349,49.506 44.422,49.423 C47.523,50.225 47.973,50.971 48,50.971 Z M45.274,40.6 C45.0063984,41.9698947 44.6669294,43.3247662 44.257,44.659 C44.116,45.117 43.976,45.571 43.816,46.021 C43.745,46.221 43.681,46.429 43.616,46.634 C43.541,46.875 43.468,47.116 43.376,47.351 C43.2619982,47.6819124 43.0766203,47.9837062 42.833,48.235 C42.5052366,48.4791482 42.1308422,48.6534118 41.733,48.747 C41.642,48.776 41.549,48.799 41.457,48.826 C41.736,47.581 41.987,46.304 42.191,45.011 C42.424,43.549 42.608,42.053 42.74,40.566 C42.786,40.066 42.814,39.566 42.846,39.071 C43.828,38.91 44.761,38.733 45.614,38.535 C45.523,39.222 45.408,39.912 45.274,40.6 Z M45.693,28.232 C45.8661122,29.6010387 45.9662537,30.9783191 45.993,32.358 L45.993,32.374 C45.0863333,32.6133333 44.0806667,32.8286667 42.976,33.02 C42.964,32.527 42.947,32.047 42.92,31.586 C42.848,30.08 42.72,28.577 42.554,27.118 C42.39,25.708 42.167,24.263 41.874,22.703 C41.791,22.25 41.699,21.803 41.606,21.351 L41.573,21.192 C41.539,21.049 41.513,20.902 41.485,20.757 C42.2510085,20.5506212 42.9878511,20.2482234 43.678,19.857 C43.708,19.941 43.742,20.023 43.772,20.107 C44.2362473,21.4296513 44.6304607,22.7758518 44.953,24.14 C45.2724383,25.4884854 45.5194584,26.8531047 45.693,28.228 L45.693,28.232 Z M42.913,18 C42.0710441,18.5201765 41.1349068,18.8694866 40.158,19.028 C40.0718779,19.0359557 39.9871625,19.0551175 39.906,19.085 C36.6455414,19.7387177 33.3250374,20.0454269 30,20 C26.6750689,20.0464143 23.3545659,19.7407108 20.094,19.088 C20.0128375,19.0581175 19.9281221,19.0389557 19.842,19.031 C18.8649388,18.8713365 17.9288318,18.5210184 17.087,18 C17.665,17.513 20.08,16.605 25,16.2 L25,17 C25,17.5522847 25.4477153,18 26,18 L34,18 C34.5522847,18 35,17.5522847 35,17 L35,16.2 C39.92,16.608 42.335,17.516 42.913,18 Z M57,9 L35.972,9 C35.9899126,8.83392468 35.9992583,8.66703689 36,8.5 C35.9983082,7.99111992 35.9197554,7.48541487 35.767,6.99999697 L57,7 C57.2696918,6.99932881 57.5276905,7.11005477 57.713,7.306 C57.8984514,7.48909032 58.0019672,7.7394037 58,8 C58,8.55228475 57.5522847,9 57,9 Z" id="Shape"/></g></g></svg>
