<svg id="Capa_1" enable-background="new 0 0 512 512" height="512" viewBox="0 0 512 512" width="512" xmlns="http://www.w3.org/2000/svg"><g><path d="m183.968 91-36.578 164.604c-14.32 64.436 30.031 126.7 93.611 135.373v1.023c0 49.626-40.374 90-90 90v30h210v-30c-49.626 0-90-40.374-90-90v-1.023c63.604-8.677 107.924-70.964 93.611-135.374l-36.579-164.603h-57.033v-91h-90v30h60v61zm24.065 30h32.967v47.52c-14.759-2.342-29.925-1.204-44.285 3.409zm73.676 361h-51.418c10.283-9.07 19.008-19.876 25.709-31.947 6.701 12.071 15.427 22.877 25.709 31.947zm-10.709-361h32.968l16.331 73.486c-14.368.943-28.762-2.823-40.978-10.967-2.709-1.806-5.49-3.447-8.32-4.951v-57.568zm-8.32 87.481c15.978 10.651 34.516 16.159 53.283 16.158 3.629 0 7.266-.218 10.896-.632l8.468 38.105c11.319 50.941-27.515 99.888-79.327 99.888-51.776 0-90.653-48.919-79.325-99.888l11.791-53.061.854-.569c22.283-14.856 51.078-14.855 73.36-.001z"/></g></svg>