<svg id="particle_x5F_accelerator" enable-background="new 0 0 300 300" height="512" viewBox="0 0 300 300" width="512" xmlns="http://www.w3.org/2000/svg"><path d="m263.49 160.809c3.927-2.918 6.51-7.552 6.51-12.809 0-5.77-3.098-10.791-7.69-13.606.266-.651.424-1.35.308-2.095-2.65-16.914-9.242-33.301-19.064-47.387-.064-.091-.162-.137-.232-.221 1.793-5.243.885-11.259-3.018-15.72-4.006-4.576-10.05-6.245-15.6-4.984-16.204-14.089-35.854-23.247-56.977-26.563-3.06-5.585-8.923-9.424-15.727-9.424-6.551 0-12.238 3.553-15.387 8.798-22.843 2.646-44.094 12.005-61.52 27.146-5.494-1.172-11.44.51-15.396 5.029-3.846 4.396-4.789 10.303-3.102 15.492-.042.053-.103.079-.142.135-10.154 14.459-16.877 31.316-19.443 48.752-.07.473-.018.93.073 1.373-4.269 2.876-7.083 7.752-7.083 13.275 0 5.148 2.486 9.686 6.274 12.614 1.753 19.175 8.396 37.719 19.238 53.64.114.167.257.298.39.442-.488 4.318.716 8.813 3.795 12.333 2.984 3.408 7.108 5.184 11.31 5.378.113.141.172.31.307.438 2.759 2.622 5.714 5.068 8.74 7.416l-32.873 24.533c-1.381 1.029-1.947 2.83-1.404 4.465.543 1.637 2.074 2.74 3.797 2.74h200.639c1.723 0 3.254-1.104 3.797-2.74.543-1.635-.023-3.436-1.404-4.465l-32.873-24.533c3.017-2.341 5.967-4.782 8.735-7.41.129-.123.186-.285.295-.42 4.281-.136 8.504-1.933 11.543-5.404 3.127-3.575 4.312-8.155 3.761-12.534.065-.081.145-.144.204-.231 10.808-15.869 17.439-34.344 19.219-53.453zm-36.73 33.105c-1.089-.953-2.297-1.742-3.584-2.364 4.931-8.718 8.305-18.309 9.889-28.359 1.591.515 3.256.809 4.936.809h2.661c-1.722 11.384-5.513 22.192-11.318 32.175zm-39.108 22.406-5.084-3.794c22.459-11.804 37.831-35.336 37.831-62.421 0-38.877-31.627-70.504-70.504-70.504s-70.506 31.627-70.506 70.504c0 27.085 15.372 50.615 37.831 62.42l-5.301 3.956c-.248-.26-.481-.534-.806-.726-23.104-13.68-37.455-38.836-37.455-65.65 0-42.035 34.199-76.234 76.236-76.234 42.035 0 76.234 34.199 76.234 76.234.001 27.369-14.728 52.643-38.476 66.215zm-100.263-66.215c0-34.465 28.039-62.504 62.506-62.504 34.465 0 62.504 28.039 62.504 62.504 0 34.467-28.039 62.506-62.504 62.506-34.467 0-62.506-28.039-62.506-62.506zm-49.389-2.105c0-4.412 3.588-8 8-8h16c1.47 0 2.901.42 4.145 1.174-.311 2.937-.486 5.913-.486 8.931 0 1.639.067 3.269.163 4.895-1.169.637-2.478 1-3.821 1h-16.001c-4.412 0-8-3.588-8-8zm35.24-45.914c1.615 1.413 3.509 2.43 5.521 3.098-5.317 8.388-9.252 17.732-11.337 27.767-1.728-.622-3.563-.951-5.424-.951h-2.134c2.192-10.979 6.327-21.33 12.327-30.83zm21.076-24.08-.581-.509c11.838-9.167 25.714-15.299 40.42-17.843.242 2.623 1.014 5.135 2.329 7.389-14.19 2.286-27.187 8.094-38.082 16.547-.934-2.123-2.308-4.028-4.086-5.584zm143.684 77.994c-1.307 0-2.551-.305-3.697-.902-.109-.057-.228-.052-.34-.098.095-1.625.166-3.254.166-4.894 0-2.973-.165-5.907-.467-8.802 1.288-.835 2.786-1.304 4.338-1.304h16c4.412 0 8 3.588 8 8s-3.588 8-8 8zm16.436-23.956c-.148-.004-.287-.044-.436-.044h-16c-1.936 0-3.837.35-5.62 1.018-2.076-10.036-6.007-19.379-11.315-27.77 2.068-.658 4.012-1.692 5.694-3.163l11.749-10.283c7.995 12.145 13.473 25.959 15.928 40.242zm-20.155-57.806c2.906 3.32 2.568 8.387-.752 11.291l-12.037 10.535c-1.539 1.348-3.483 2.044-5.526 1.957-2.412-3.053-5.022-5.93-7.825-8.622.04-.153.132-.279.154-.438.262-1.912 1.205-3.664 2.658-4.936l12.041-10.537c3.315-2.906 8.381-2.57 11.287.75zm-17.221-6.187-11.376 9.955c-1.807 1.581-3.162 3.561-4.098 5.733-9.946-7.764-21.63-13.395-34.414-16.071 1.832-2.87 2.828-6.205 2.828-9.668v-12c0-.011-.003-.021-.003-.031 17.286 3.315 33.391 10.873 47.063 22.082zm-75.06-22.051c0-5.514 4.486-10 10-10s10 4.486 10 10v12c0 2.529-.947 4.943-2.666 6.797-.413.446-.679.966-.852 1.509-2.824-.287-5.689-.435-8.587-.435-1.497 0-2.957.147-4.435.225-.177-.466-.434-.911-.793-1.299-1.72-1.854-2.667-4.268-2.667-6.797zm-8 0v5.549c-16.956 2.717-32.948 9.817-46.403 20.577l-4.756-4.162c14.818-12.122 32.376-19.903 51.235-22.718-.011.256-.076.496-.076.754zm-68.283 28.24c2.906-3.32 7.971-3.662 11.289-.752l12.041 10.537c1.23 1.078 2.09 2.479 2.486 4.053.094.371.292.677.476.992-2.961 2.81-5.717 5.82-8.247 9.03-.088-.009-.161-.056-.25-.059-1.863-.059-3.592-.742-5.002-1.975l-12.039-10.537c-3.321-2.904-3.659-7.97-.754-11.289zm-4.358 17.447 4.733 4.142c-7.182 11.07-12.005 23.233-14.375 36.171h-5.717c-.219 0-.424.056-.641.065 2.466-14.352 7.955-28.197 16-40.378zm-16.634 72.184c.428.035.838.129 1.275.129h16c1.62 0 3.215-.272 4.747-.749 1.606 10.042 4.985 19.672 9.952 28.417-1.232.611-2.408 1.328-3.458 2.245l-12.039 10.537c-.546.478-.988 1.025-1.453 1.556-7.947-12.795-13.08-27.198-15.024-42.135zm21.746 46.6 12.037-10.535c.699-.611 1.486-1.092 2.336-1.428.06-.024.098-.075.156-.101 2.872 4.105 6.097 7.966 9.67 11.52-.436.756-.953 1.46-1.623 2.048l-12.041 10.537c-3.32 2.9-8.383 2.564-11.289-.75-2.905-3.321-2.567-8.387.754-11.291zm13.731 19.562c.716-.448 1.418-.928 2.073-1.502l12.041-10.537c.905-.792 1.702-1.67 2.396-2.622 2.69 2.202 5.531 4.239 8.51 6.108l-18.509 13.813c-2.241-1.666-4.407-3.424-6.511-5.26zm-18.581 33.967 10.115-7.549c.371.114.743.233 1.152.233h26.877c2.209 0 4-1.791 4-4s-1.791-4-4-4h-17.621l21.717-16.208c.335.091.663.208 1.027.208h45.112c2.209 0 4-1.791 4-4s-1.791-4-4-4h-35.697l11.338-8.461c7.576 2.789 15.722 4.389 24.253 4.389s16.677-1.6 24.252-4.389l64.02 47.777zm132.954-42.513c3.041-1.907 5.929-3.997 8.668-6.243.712.995 1.505 1.931 2.44 2.75l12.041 10.537c.618.541 1.284.989 1.957 1.418-2.139 1.87-4.338 3.656-6.608 5.343zm39.708.273c-2.908 3.318-7.977 3.654-11.289.752l-12.041-10.537c-.698-.61-1.249-1.34-1.694-2.137 3.53-3.513 6.719-7.325 9.559-11.376.967.335 1.89.788 2.672 1.472l12.039 10.537c3.321 2.904 3.659 7.97.754 11.289zm4.516-17.309-3.399-2.975c.177-.196.355-.392.495-.629 6.733-11.386 11.031-23.779 12.849-36.848h5.256c.363 0 .703-.083 1.06-.107-1.939 14.875-7.041 29.222-14.935 41.979-.431-.481-.828-.984-1.326-1.42z"/><path d="m192.814 150.105c0-23.666-19.254-42.92-42.92-42.92-23.668 0-42.922 19.254-42.922 42.92 0 23.668 19.254 42.922 42.922 42.922 23.667 0 42.92-19.254 42.92-42.922zm-77.841 0c0-19.256 15.666-34.92 34.922-34.92s34.92 15.664 34.92 34.92-15.664 34.922-34.92 34.922-34.922-15.666-34.922-34.922z"/><path d="m120.994 248.684c-2.209 0-4 1.791-4 4s1.791 4 4 4h77.006c2.209 0 4-1.791 4-4s-1.791-4-4-4z"/></svg>