<svg id="Layer_1" enable-background="new 0 0 510 510" height="512" viewBox="0 0 510 510" width="512" xmlns="http://www.w3.org/2000/svg"><g><path d="m195 105h30v30h-30z"/><path d="m285 105h30v30h-30z"/><path d="m510 105h-30v60h-30v-60h-30v90h30v75h-45v-45h-75v-30h60c0-17.126 0-146.981 0-165h30v-30c-21.044 0-39.096 0-60 0v65.252c-24.77-30.628-62.633-50.252-105-50.252-74.439 0-135 60.561-135 135v45h60v30h-75v45h-45v-75h30v-90h-30v60h-30v-60h-30v90h30v105h75v60h-31.992l18.75 150h103.242v-120h135v120h103.242l18.75-150h-46.992v-60h75v-105h30zm-360 60v-15c0-57.897 47.102-105 105-105s105 47.103 105 105v15c-10.395 0-199.611 0-210 0zm60 30h90v30h-90zm-91.758 285-3.75-30h50.508v30zm46.758-60h-54.258l-3.75-30h58.008zm195 60v-30h50.508l-3.75 30zm58.008-90-3.75 30h-54.258v-30zm-283.008-30v-105h240v105c-23.706 0-214.708 0-240 0z"/><path d="m180 285h165v30h-165z"/></g></svg>