<svg height="512" viewBox="0 0 60 60" width="512" xmlns="http://www.w3.org/2000/svg"><g id="Page-1" fill="none" fill-rule="evenodd"><g id="026---Oil-Rig" fill="rgb(0,0,0)" fill-rule="nonzero"><path id="Shape" d="m59 52c-.6488426-.0087595-1.268858-.2694601-1.729-.727l-.026-.023c-1.7243245-1.675012-4.4711848-1.6647941-6.183.023-.3005655.2872022-.6643076.4998989-1.062.621v-11.894h3c1.6568542 0 3-1.3431458 3-3v-8c0-.5522847-.4477153-1-1-1h-1.539l6.471-16.638c.1664672-.4290239.0186511-.916267-.3581267-1.1804853-.3767777-.26421835-.8852311-.23718941-1.2318733.0654853l-14.031 12.272-.267-2.494c0-.008 0-.015 0-.023.0001055-.0864006-.0109869-.1724506-.033-.256l-2.017-18.852c-.0096865-.04567518-.0230637-.09048894-.04-.134-.0124858-.05859688-.0305687-.1158596-.054-.171-.0329036-.06768512-.0738673-.13114529-.122-.189-.0197871-.03451806-.0414875-.06790344-.065-.1-.008-.009-.013-.011-.026-.019-.0669365-.05973176-.1416066-.11018448-.222-.15-.0298068-.02088149-.060865-.03991715-.093-.057-.0811053-.02779689-.1654779-.04494033-.251-.051-.039789-.01029529-.0802086-.01797834-.121-.023h-10c-.5111129.00018714-.9398221.38576664-.994.894l-2.906 27.106h-2.1v-10c0-1.1045695-.8954305-2-2-2h-22c-.37877206 0-.72503518.2140024-.89442719.5527864-.16939202.338784-.13283605.744196.09442719 1.0472136l2.8 3.733v15.667c0 1.6568542 1.34314575 3 3 3h4v11.893c-.39853072-.1210387-.76300942-.334108-1.064-.622-1.71094547-1.6865018-4.45608867-1.6962757-6.179-.022l-.028.024c-.46014195.4575399-1.08015744.7182405-1.729.727-.55228475 0-1 .4477153-1 1s.44771525 1 1 1c1.14670549-.0107786 2.24638515-.4573 3.076-1.249l.028-.024c.45361805-.4685181 1.07786619-.7330182 1.73-.7330182s1.27638195.2645001 1.73.7330182c.90620897.8738116 2.13880687 1.3250985 3.395 1.243.014 0 .026.008.041.008.0370428-.005308.0737651-.0126524.11-.022.9863647-.1024 1.911621-.526549 2.633-1.207l.028-.024c.4535504-.4678891 1.077365-.731986 1.729-.731986s1.2754496.2640969 1.729.731986l.026.023c1.0953356 1.053498 2.6557621 1.469108 4.13 1.1h.006c.7671646-.1936069 1.471915-.5805827 2.047-1.124.4535504-.4678891 1.077365-.731986 1.729-.731986s1.2754496.2640969 1.729.731986l.026.023c1.7344325 1.6125374 4.4195675 1.6125374 6.154 0l.028-.024c.4536181-.4685181 1.0778662-.7330182 1.73-.7330182s1.2763819.2645001 1.73.7330182c1.7109455 1.6865018 4.4560887 1.6962757 6.179.022l.028-.024c.4535504-.4678891 1.077365-.731986 1.729-.731986s1.2754496.2640969 1.729.731986l.026.023c.7198302.6784517 1.6423043 1.1021012 2.626 1.206.0389892.0125173.0787364.0225376.119.03.016 0 .029-.008.044-.009 1.2560384.0817985 2.4883357-.3698744 3.394-1.244.4535504-.4678891 1.077365-.731986 1.729-.731986s1.2754496.2640969 1.729.731986l.026.023c.8301286.7922779 1.9305244 1.2391573 3.078 1.25.5522847 0 1-.4477153 1-1s-.4477153-1-1-1zm-2.409-37.564-5.275 13.564h-6.416l-.327-3.051zm-25.943-.768 10.458 6.332-11.9 7.117zm9.578-10.5 1.6 14.929-10.386-6.286zm1.983 18.5.678 6.332h-11.266zm-3.651-19.668-7.445 7.326.787-7.326zm13.442 28h2v7c0 .5522847-.4477153 1-1 1h-28v-8zm-29-12v2h-18.5l-1.5-2zm-18 19v-15h18v16h-17c-.55228475 0-1-.4477153-1-1zm13.578 14.25c-1.7134048-1.6651775-4.4405952-1.6651775-6.154 0l-.028.024c-.1242289.1160722-.2580376.2214466-.4.315v-11.589h8v11.972c-.5278948-.0827282-1.0170806-.3273211-1.4-.7zm13.179 0-.028.024c-.9559988.9522446-2.5020012.9522446-3.458 0l-.026-.023c-1.7243245-1.675012-4.4711848-1.6647941-6.183.023-.02.019-.042.032-.062.05v-11.324h16v11.323c-.021-.019-.044-.032-.064-.052-1.7109455-1.6865018-4.4560887-1.6962757-6.179-.022zm15.821 0c-1.7134048-1.6651775-4.4405952-1.6651775-6.154 0l-.028.024c-.382648.3730607-.8719626.617718-1.4.7v-11.974h8v11.588c-.1419624-.0935534-.2757711-.1989278-.4-.315z"/><path id="Shape" d="m59 58c-.6488426-.0087595-1.268858-.2694601-1.729-.727l-.026-.023c-1.7243245-1.675012-4.4711848-1.6647941-6.183.023-.4534107.4681463-1.0772775.732423-1.729.732423s-1.2755893-.2642767-1.729-.732423l-.026-.023c-1.7136182-1.6646518-4.4403818-1.6646518-6.154 0l-.028.024c-.4536181.4685181-1.0778662.7330182-1.73.7330182s-1.2763819-.2645001-1.73-.7330182c-1.7109455-1.6865018-4.4560887-1.6962757-6.179-.022l-.028.024c-.9559988.9522446-2.5020012.9522446-3.458 0l-.026-.023c-1.7243245-1.675012-4.4711848-1.6647941-6.183.023-.4534107.4681463-1.0772775.732423-1.729.732423s-1.2755893-.2642767-1.729-.732423l-.026-.023c-1.7136182-1.6646518-4.4403818-1.6646518-6.154 0l-.028.024c-.4536181.4685181-1.0778662.7330182-1.73.7330182s-1.27638195-.2645001-1.73-.7330182c-1.71094547-1.6865018-4.45608867-1.6962757-6.179-.022l-.028.024c-.46110351.4553409-1.08100265.7138414-1.729.721-.55228475 0-1 .4477153-1 1s.44771525 1 1 1c1.14670549-.0107786 2.24638515-.4573 3.076-1.249l.028-.024c.45361805-.4685181 1.07786619-.7330182 1.73-.7330182s1.27638195.2645001 1.73.7330182c1.71094547 1.6865018 4.4560887 1.6962757 6.179.022l.028-.024c.4535504-.4678891 1.077365-.731986 1.729-.731986s1.2754496.2640969 1.729.731986l.026.023c1.7245395 1.6744792 4.4709658 1.6642628 6.183-.023.4535504-.4678891 1.077365-.731986 1.729-.731986s1.2754496.2640969 1.729.731986l.026.023c1.7344325 1.6125374 4.4195675 1.6125374 6.154 0l.028-.024c.4536181-.4685181 1.0778662-.7330182 1.73-.7330182s1.2763819.2645001 1.73.7330182c1.7109455 1.6865018 4.4560887 1.6962757 6.179.022l.028-.024c.4535504-.4678891 1.077365-.731986 1.729-.731986s1.2754496.2640969 1.729.731986l.026.023c1.7245395 1.6744792 4.4709658 1.6642628 6.183-.023.4535504-.4678891 1.077365-.731986 1.729-.731986s1.2754496.2640969 1.729.731986l.026.023c.8293513.794104 1.9298379 1.242808 3.078 1.255.5522847 0 1-.4477153 1-1s-.4477153-1-1-1z"/><path id="Shape" d="m20 30c.5522847 0 1-.4477153 1-1v-4c0-.5522847-.4477153-1-1-1h-12c-.55228475 0-1 .4477153-1 1v4c0 .5522847.44771525 1 1 1zm-1-2h-4v-2h4zm-10-2h4v2h-4z"/></g></g></svg>