<?xml version="1.0" encoding="iso-8859-1"?>
<!-- Generator: Adobe Illustrator 19.0.0, SVG Export Plug-In . SVG Version: 6.00 Build 0)  -->
<svg version="1.1" id="Capa_1" xmlns="http://www.w3.org/2000/svg" xmlns:xlink="http://www.w3.org/1999/xlink" x="0px" y="0px"
	 viewBox="0 0 511.897 511.897" style="enable-background:new 0 0 511.897 511.897;" xml:space="preserve">
<g>
	<g>
		<path d="M444.529,151.065c13.379-17.43,7.405-46.757-14.768-68.938c-10.009-10.36-22.82-17.578-36.867-20.771
			c-11.054-2.784-22.772-0.587-32.067,6.01C257.109-10.528,138.103-22.448,75.712,39.857
			c-62.297,62.294-50.487,181.218,27.257,284.977l-15.014,15.013l-0.059,0.04l-0.134,0.154l-41.837,41.835l-0.054,0.036
			l-0.122,0.141L9.891,417.908l-0.037,0.024c-16.85,16.846-11.575,48.517,12,72.1c12.133,13.065,28.87,20.9,46.675,21.85
			c9.457,0.281,18.627-3.266,25.434-9.838l0.058-0.087l34.951-34.98c0.158-0.133,0.9-0.787,1.05-0.933l56.969-57.053
			c59.04,44.247,122.981,67.161,178.631,67.161c42.167,0,79.558-13.117,106.417-39.975
			C534.329,373.796,522.43,254.784,444.529,151.065z M369.62,82.324l0.092-0.092l0.039-0.06c3.603-3.284,8.366-4.996,13.235-4.757h0
			c2.206,0.011,4.405,0.239,6.567,0.679c10.742,2.527,20.519,8.12,28.142,16.1c16.238,16.242,21.738,38.187,12.027,47.945
			l-0.052,0.034l-0.051,0.05c-9.778,9.621-31.657,4.155-47.883-12.067c-7.985-7.622-13.582-17.4-16.108-28.146
			C363.749,95.187,365.231,87.877,369.62,82.324z M348.895,105.361c3.194,14.046,10.413,26.857,20.775,36.863
			c10.437,10.905,24.009,18.29,38.834,21.132l-80.549,80.61c-0.053,0.05-0.124,0.065-0.176,0.117
			c-5.562,4.487-12.949,6.011-19.833,4.092c-10.721-2.572-20.483-8.157-28.133-16.096c-16.25-16.254-21.75-38.225-12.009-47.971
			c0.044-0.044,0.056-0.104,0.099-0.148l80.689-80.623C348.7,104.014,348.757,104.675,348.895,105.361z M111.042,141.591
			l105.907,69.19l-61.491,61.558C124.344,227.524,108.084,179.349,111.042,141.591z M177.778,75.241
			c37.681-2.817,85.712,13.427,130.353,44.394l-61.298,61.252L177.778,75.241z M267.745,244.145
			c10.005,10.354,22.81,17.569,36.85,20.763c0.69,0.138,1.354,0.2,2.035,0.31l-20.962,20.959
			c-5.559,4.424-12.901,5.919-19.747,4.022c-10.721-2.572-20.483-8.157-28.133-16.096c-16.25-16.258-21.75-38.225-12.008-47.971
			c0.039-0.039,0.049-0.092,0.087-0.132l9.904-9.914c0.073-0.058,0.138-0.127,0.209-0.187c0.126-0.107,0.247-0.213,0.367-0.328
			l0.165-0.147l10.049-10.052C249.444,220.175,256.845,233.721,267.745,244.145z M234.534,193.265l-5.21,5.211l-115.025-75.147
			c2.819-10.784,8.381-20.654,16.146-28.651c8.107-7.839,18.113-13.434,29.036-16.235L234.534,193.265z M204.532,247.355
			c2.876,14.819,10.279,28.381,21.188,38.814c10.005,10.354,22.81,17.569,36.85,20.762c0.688,0.138,1.351,0.199,2.03,0.309
			l-38.854,38.849c-11.229-8.652-21.91-17.99-31.984-27.963c-9.978-10.074-19.319-20.76-27.967-31.997L204.532,247.355z
			 M297.764,298.219l0.056-0.045l0.021-0.032l3.311-3.311l69.266,106.019c-37.772,2.988-86.025-13.284-130.874-44.416
			L297.764,298.219z M313.481,282.504l5.078-5.078l114.873,75.099c-5.347,22.196-22.617,39.562-44.783,45.032h0L313.481,282.504z
			 M330.93,265.129l61.324-61.37c30.971,44.725,47.224,92.809,44.391,130.482L330.93,265.129z M81.853,489.99l-0.01,0.016
			c-9.765,9.692-31.69,4.188-47.923-12.041C17.689,461.73,12.198,439.8,21.893,430.038l0.003-0.002l14.911-14.91
			c0.11,0.681,0.168,1.346,0.306,2.035c3.196,14.04,10.412,26.845,20.767,36.85c10.437,10.901,24.006,18.285,38.827,21.129
			L81.853,489.99z M118.395,453.565l-0.319,0.279c-0.049,0.047-0.116,0.06-0.164,0.109c-9.75,9.733-31.717,4.237-47.967-12.008
			c-7.944-7.649-13.531-17.413-16.1-28.137c-1.893-6.841-0.401-14.174,4.013-19.732l20.973-20.972
			c0.11,0.68,0.168,1.345,0.306,2.033c3.196,14.04,10.412,26.845,20.767,36.85c10.004,10.356,22.809,17.571,36.85,20.762
			c0.71,0.143,1.397,0.207,2.098,0.32L118.395,453.565z M159.98,411.899l-0.043,0.029c-5.564,4.484-12.95,6.006-19.833,4.087
			c-10.722-2.57-20.484-8.156-28.133-16.096c-7.944-7.649-13.531-17.413-16.1-28.138c-1.891-6.837-0.402-14.165,4.005-19.722
			l13.711-13.711c8.912,11.005,18.371,21.556,28.342,31.613c10.057,9.972,20.61,19.433,31.617,28.346L159.98,411.899z
			 M459.962,424.115c-57.342,57.321-170.267,43.396-268.533-33.129c-26.315-20.525-50.002-44.213-70.525-70.529
			C44.37,222.194,30.445,109.261,87.778,51.928C143.639-3.864,252.101,8.082,348.401,79.395l-28.024,28.003
			c-54.868-38.865-113.7-56.494-158.56-47.217l-0.189,0.031l-0.117,0.02c-16.277,3.023-31.29,10.812-43.133,22.379
			c-11.475,11.704-19.226,26.545-22.275,42.65l-0.001,0.003c-0.044,0.203-0.074,0.397-0.103,0.602
			c-9.695,46.576,9.516,108.091,51.512,164.734c20.854,28.07,45.713,52.93,73.783,73.783c46.5,34.471,98.05,53.904,140.542,53.9
			c8.362,0.045,16.705-0.79,24.892-2.492c0.097-0.021,0.182-0.057,0.279-0.079c0.197-0.049,0.388-0.101,0.583-0.165
			c32.69-6.208,58.146-31.963,63.972-64.723c0.079-0.296,0.141-0.595,0.186-0.898c9.158-44.853-8.471-103.57-47.262-158.407
			l28.009-28.03C503.8,259.779,515.754,368.25,459.962,424.115z"/>
	</g>
</g>
<g>
</g>
<g>
</g>
<g>
</g>
<g>
</g>
<g>
</g>
<g>
</g>
<g>
</g>
<g>
</g>
<g>
</g>
<g>
</g>
<g>
</g>
<g>
</g>
<g>
</g>
<g>
</g>
<g>
</g>
</svg>
